<svg width="107" height="248" viewBox="0 0 214 248" fill="none" xmlns="http://www.w3.org/2000/svg">
<g id="blockchain-security">
<path id="Path 281" d="M104.431 0.600098C104.431 0.600098 142.936 20.6154 209.147 31.7019C211.003 87.9733 208.201 194.797 104.431 246.6" stroke="currentColor" stroke-width="1.2" stroke-linecap="round" stroke-linejoin="round"/>
<path id="Path 281 Copy" d="M105.679 0.600098C105.679 0.600098 67.1738 20.6154 0.962307 31.7019C-0.893336 87.9733 1.90856 194.797 105.679 246.6" stroke="currentColor" stroke-width="1.2" stroke-linecap="round" stroke-linejoin="round"/>
<circle id="Oval 38" cx="107.235" cy="115.61" r="56.1023" stroke="currentColor" stroke-width="1.2" stroke-linecap="round" stroke-linejoin="round"/>
<path id="Rectangle 19" d="M81.9893 108.394C81.9893 107.732 82.5265 107.194 83.1893 107.194H131.281C131.944 107.194 132.481 107.732 132.481 108.394V141.666C132.481 144.317 130.332 146.466 127.681 146.466H86.7893C84.1383 146.466 81.9893 144.317 81.9893 141.666V108.394Z" stroke="currentColor" stroke-width="1.2" stroke-linecap="round" stroke-linejoin="round"/>
<path id="Oval 39" d="M121.261 105.702V95.9733C121.261 88.2272 114.982 81.9478 107.236 81.9478C99.4894 81.9478 93.21 88.2272 93.21 95.9733V105.702" stroke="currentColor" stroke-width="1.2" stroke-linecap="round" stroke-linejoin="round"/>
<path id="Stroke 3" d="M107.235 126.83V137.427" stroke="currentColor" stroke-width="1.2" stroke-linecap="round" stroke-linejoin="round"/>
<circle id="Oval 9" cx="107.235" cy="122.623" r="4.20767" stroke="currentColor" stroke-width="1.2" stroke-linecap="round" stroke-linejoin="round"/>
<path id="Path 299" d="M64.7896 151.719L45.2528 171.417H26.6721" stroke="currentColor" stroke-width="1.2" stroke-linecap="round" stroke-linejoin="round"/>
<path id="Path 300" d="M45.5236 170.918V198.502" stroke="currentColor" stroke-width="1.2" stroke-linecap="round" stroke-linejoin="round"/>
<path id="Path 299_2" d="M67.5935 76.6944L48.0567 56.9956L0.600013 56.9956" stroke="currentColor" stroke-width="1.2" stroke-linecap="round" stroke-linejoin="round"/>
<path id="Path 300_2" d="M48.3274 57.4951L48.3274 21.9092" stroke="currentColor" stroke-width="1.2" stroke-linecap="round" stroke-linejoin="round"/>
<path id="Path 301" d="M105.474 59.545L131.65 33.3685V12.7676" stroke="currentColor" stroke-width="1.2" stroke-linecap="round" stroke-linejoin="round"/>
<path id="Path 301_2" d="M106.405 59.545L80.2283 33.3685V12.7676" stroke="currentColor" stroke-width="1.2" stroke-linecap="round" stroke-linejoin="round"/>
<path id="Path 301_3" d="M51.1711 113.849L24.9946 140.026H14.6475" stroke="currentColor" stroke-width="1.2" stroke-linecap="round" stroke-linejoin="round"/>
<path id="Path 301_4" d="M3.34181 88.6035L29.5183 114.78H51.1709" stroke="currentColor" stroke-width="1.2" stroke-linecap="round" stroke-linejoin="round"/>
<path id="Path 301_5" d="M105.474 171.674L131.65 197.851V229.905" stroke="currentColor" stroke-width="1.2" stroke-linecap="round" stroke-linejoin="round"/>
<path id="Path 301_6" d="M106.405 171.675L80.2283 197.851V230.994" stroke="currentColor" stroke-width="1.2" stroke-linecap="round" stroke-linejoin="round"/>
<circle id="Oval Copy 158" cx="48.3273" cy="56.7023" r="7.51534" transform="rotate(-90 48.3273 56.7023)" fill="currentColor" stroke="currentColor" stroke-width="1.8"/>
<circle id="Oval Copy 161" cx="45.5234" cy="171.712" r="7.51534" transform="rotate(-90 45.5234 171.712)" fill="currentColor" stroke="currentColor" stroke-width="1.8"/>
<circle id="Oval Copy 162" cx="107.236" cy="124.025" r="7.51534" transform="rotate(-90 107.236 124.025)" fill="currentColor" stroke="currentColor" stroke-width="1.8"/>
</g>
</svg>
