<svg width="111" height="248" viewBox="0 0 111 248" fill="none" xmlns="http://www.w3.org/2000/svg">
<path fill-rule="evenodd" clip-rule="evenodd" d="M87.2714 113.85L111.313 89.8086L135.354 113.85L111.313 137.892L87.2714 113.85Z" stroke="#ACACAC" stroke-width="1.2" stroke-linecap="round" stroke-linejoin="round"/>
<path d="M126.892 123.15L135.355 131.612L111.313 155.654L87.2715 131.612L95.8113 123.072" stroke="#ACACAC" stroke-width="1.2" stroke-linecap="round" stroke-linejoin="round"/>
<path fill-rule="evenodd" clip-rule="evenodd" d="M87.2715 25.0415L111.313 0.999986L135.355 25.0415L111.313 49.083L87.2715 25.0415Z" stroke="#ACACAC" stroke-width="1.2" stroke-linecap="round" stroke-linejoin="round"/>
<path d="M126.892 34.3413L135.355 42.8037L111.313 66.8452L87.2715 42.8037L95.8113 34.2639" stroke="#ACACAC" stroke-width="1.2" stroke-linecap="round" stroke-linejoin="round"/>
<path fill-rule="evenodd" clip-rule="evenodd" d="M87.2715 205.197L111.313 181.155L135.355 205.197L111.313 229.238L87.2715 205.197Z" stroke="#ACACAC" stroke-width="1.2" stroke-linecap="round" stroke-linejoin="round"/>
<path d="M126.892 214.496L135.355 222.958L111.313 247L87.2715 222.958L95.8113 214.419" stroke="#ACACAC" stroke-width="1.2" stroke-linecap="round" stroke-linejoin="round"/>
<path fill-rule="evenodd" clip-rule="evenodd" d="M1.00006 113.85L25.0416 89.8086L49.0831 113.85L25.0416 137.892L1.00006 113.85Z" stroke="#ACACAC" stroke-width="1.2" stroke-linecap="round" stroke-linejoin="round"/>
<path d="M40.6208 123.15L49.0832 131.612L25.0416 155.654L1.00012 131.612L9.53998 123.072" stroke="#ACACAC" stroke-width="1.2" stroke-linecap="round" stroke-linejoin="round"/>
<path fill-rule="evenodd" clip-rule="evenodd" d="M44.1358 159.523L68.1773 135.482L92.2188 159.523L68.1773 183.565L44.1358 159.523Z" stroke="#ACACAC" stroke-width="1.2" stroke-linecap="round" stroke-linejoin="round"/>
<path d="M83.7564 168.823L92.2188 177.285L68.1773 201.327L44.1358 177.285L52.6757 168.745" stroke="#ACACAC" stroke-width="1.2" stroke-linecap="round" stroke-linejoin="round"/>
<path fill-rule="evenodd" clip-rule="evenodd" d="M44.1358 68.1777L68.1773 44.1362L92.2188 68.1777L68.1773 92.2193L44.1358 68.1777Z" stroke="#ACACAC" stroke-width="1.2" stroke-linecap="round" stroke-linejoin="round"/>
<path d="M83.7564 77.4766L92.2188 85.939L68.1773 109.98L44.1357 85.939L52.6756 77.3991" stroke="#ACACAC" stroke-width="1.2" stroke-linecap="round" stroke-linejoin="round"/>
<circle cx="111.377" cy="23.8365" r="6.71219" transform="rotate(-90 111.377 23.8365)" fill="#F8F8F8" stroke="#ACACAC" stroke-width="1.8"/>
<circle cx="25.1052" cy="113.915" r="6.71219" transform="rotate(-90 25.1052 113.915)" fill="#F8F8F8" stroke="#ACACAC" stroke-width="1.8"/>
<circle cx="111.377" cy="205.26" r="6.71219" transform="rotate(-90 111.377 205.26)" fill="#F8F8F8" stroke="#ACACAC" stroke-width="1.8"/>
<circle cx="111.377" cy="113.915" r="6.71219" transform="rotate(-90 111.377 113.915)" fill="#F8F8F8" stroke="#ACACAC" stroke-width="1.8"/>
</svg>
