<svg viewBox="0 0 225 207" fill="none" xmlns="http://www.w3.org/2000/svg">
<path fill-rule="evenodd" clip-rule="evenodd" d="M112.209 68.4688L148.166 86.6333V122.962L112.209 141.127L76.2529 122.962L76.2529 86.6333L112.209 68.4688Z" stroke="#A442BF" stroke-opacity="0.6" stroke-linecap="round" stroke-linejoin="round"/>
<path d="M148.166 86.6328L112.209 104.797L76.2529 86.6328" stroke="#A442BF" stroke-opacity="0.6" stroke-linecap="round" stroke-linejoin="round"/>
<path d="M112.26 104.487V140.828" stroke="#A442BF" stroke-opacity="0.6" stroke-linecap="round" stroke-linejoin="round"/>
<path d="M154.103 20.2425L163.301 29.4407L178.767 13.9746" stroke="#A442BF" stroke-opacity="0.6" stroke-linecap="round" stroke-linejoin="round"/>
<path d="M42.5176 20.2425L51.7158 29.4407L67.1818 13.9746" stroke="#A442BF" stroke-opacity="0.6" stroke-linecap="round" stroke-linejoin="round"/>
<path d="M8.78516 103.281L17.9833 112.479L33.4494 97.0127" stroke="#A442BF" stroke-opacity="0.6" stroke-linecap="round" stroke-linejoin="round"/>
<path d="M190.431 103.281L199.629 112.479L215.095 97.0127" stroke="#A442BF" stroke-opacity="0.6" stroke-linecap="round" stroke-linejoin="round"/>
<path d="M42.5176 183.724L51.7158 192.922L67.1818 177.456" stroke="#A442BF" stroke-opacity="0.6" stroke-linecap="round" stroke-linejoin="round"/>
<path d="M154.103 183.724L163.301 192.922L178.767 177.456" stroke="#A442BF" stroke-opacity="0.6" stroke-linecap="round" stroke-linejoin="round"/>
<path fill-rule="evenodd" clip-rule="evenodd" d="M130.207 77.9276L156.481 39.1719L130.207 77.9276Z" stroke="#A442BF" stroke-opacity="0.6" stroke-linecap="round" stroke-linejoin="round"/>
<path fill-rule="evenodd" clip-rule="evenodd" d="M94.1719 77.4251L67.8791 38.6416L94.1719 77.4251Z" stroke="#A442BF" stroke-opacity="0.6" stroke-linecap="round" stroke-linejoin="round"/>
<path fill-rule="evenodd" clip-rule="evenodd" d="M131.748 131.939L156.112 167.878L131.748 131.939Z" stroke="#A442BF" stroke-opacity="0.6" stroke-linecap="round" stroke-linejoin="round"/>
<path fill-rule="evenodd" clip-rule="evenodd" d="M93.2119 131.588L67.9178 168.898L93.2119 131.588Z" stroke="#A442BF" stroke-opacity="0.6" stroke-linecap="round" stroke-linejoin="round"/>
<path fill-rule="evenodd" clip-rule="evenodd" d="M148.162 104.376H182.782H148.162Z" stroke="#A442BF" stroke-opacity="0.6" stroke-linecap="round" stroke-linejoin="round"/>
<path fill-rule="evenodd" clip-rule="evenodd" d="M41.8193 104.798H75.6208H41.8193Z" stroke="#A442BF" stroke-opacity="0.6" stroke-linecap="round" stroke-linejoin="round"/>
<circle cx="167.075" cy="21.7595" r="20.7595" stroke="#A442BF" stroke-opacity="0.6" stroke-linecap="round" stroke-linejoin="round"/>
<circle cx="55.4939" cy="21.7595" r="20.7595" stroke="#A442BF" stroke-opacity="0.6" stroke-linecap="round" stroke-linejoin="round"/>
<circle cx="167.075" cy="185.241" r="20.7595" stroke="#A442BF" stroke-opacity="0.6" stroke-linecap="round" stroke-linejoin="round"/>
<circle cx="55.4939" cy="185.241" r="20.7595" stroke="#A442BF" stroke-opacity="0.6" stroke-linecap="round" stroke-linejoin="round"/>
<circle cx="21.7595" cy="104.798" r="20.7595" stroke="#A442BF" stroke-opacity="0.6" stroke-linecap="round" stroke-linejoin="round"/>
<circle cx="203.405" cy="104.798" r="20.7595" stroke="#A442BF" stroke-opacity="0.6" stroke-linecap="round" stroke-linejoin="round"/>
<circle cx="182.646" cy="104.797" r="7.78482" transform="rotate(-90 182.646 104.797)" fill="#5E41D5" fill-opacity="0.8"/>
<circle cx="182.646" cy="104.797" r="7.03482" transform="rotate(-90 182.646 104.797)" stroke="#A442BF" stroke-opacity="0.6" stroke-width="1.5"/>
<circle cx="68.4694" cy="37.3294" r="7.78482" transform="rotate(-90 68.4694 37.3294)" fill="#5E41D5" fill-opacity="0.8"/>
<circle cx="68.4694" cy="37.3294" r="7.03482" transform="rotate(-90 68.4694 37.3294)" stroke="#A442BF" stroke-opacity="0.6" stroke-width="1.5"/>
<circle cx="156.695" cy="167.077" r="7.78482" transform="rotate(-90 156.695 167.077)" fill="#5E41D5" fill-opacity="0.8"/>
<circle cx="156.695" cy="167.077" r="7.03482" transform="rotate(-90 156.695 167.077)" stroke="#A442BF" stroke-opacity="0.6" stroke-width="1.5"/>
<circle cx="68.4694" cy="167.077" r="7.78482" transform="rotate(-90 68.4694 167.077)" fill="#5E41D5" fill-opacity="0.8"/>
<circle cx="68.4694" cy="167.077" r="7.03482" transform="rotate(-90 68.4694 167.077)" stroke="#A442BF" stroke-opacity="0.6" stroke-width="1.5"/>
<circle cx="42.5192" cy="104.797" r="7.78482" transform="rotate(-90 42.5192 104.797)" fill="#5E41D5" fill-opacity="0.8"/>
<circle cx="42.5192" cy="104.797" r="7.03482" transform="rotate(-90 42.5192 104.797)" stroke="#A442BF" stroke-opacity="0.6" stroke-width="1.5"/>
<circle cx="156.695" cy="39.9242" r="7.78482" transform="rotate(-90 156.695 39.9242)" fill="#5E41D5" fill-opacity="0.8"/>
<circle cx="156.695" cy="39.9242" r="7.03482" transform="rotate(-90 156.695 39.9242)" stroke="#A442BF" stroke-opacity="0.6" stroke-width="1.5"/>
</svg>
