<svg width="226" height="248" viewBox="0 0 226 248" fill="none" xmlns="http://www.w3.org/2000/svg">
<g id="smart-contract" style="mix-blend-mode:overlay">
<path id="Polygon" fill-rule="evenodd" clip-rule="evenodd" d="M134.452 81.9624L177.599 103.76V147.355L134.452 169.152L91.3038 147.355L91.3038 103.76L134.452 81.9624Z" stroke="#ACACAC" stroke-width="1.2" stroke-linecap="round" stroke-linejoin="round"/>
<path id="Polygon Copy" d="M177.599 103.759L134.452 125.557L91.3038 103.759" stroke="#ACACAC" stroke-width="1.2" stroke-linecap="round" stroke-linejoin="round"/>
<path id="Path 296" d="M134.512 125.185V168.793" stroke="#ACACAC" stroke-width="1.2" stroke-linecap="round" stroke-linejoin="round"/>
<path id="Path 310" d="M184.723 24.0913L195.761 35.1291L214.32 16.5698" stroke="#ACACAC" stroke-width="1.2" stroke-linecap="round" stroke-linejoin="round"/>
<path id="Path 310 Copy" d="M50.8215 24.0913L61.8593 35.1291L80.4186 16.5698" stroke="#ACACAC" stroke-width="1.2" stroke-linecap="round" stroke-linejoin="round"/>
<path id="Path 310 Copy 2" d="M10.3417 123.736L21.3795 134.774L39.9388 116.215" stroke="#ACACAC" stroke-width="1.2" stroke-linecap="round" stroke-linejoin="round"/>
<path id="Path 310 Copy 3" d="M50.8215 220.269L61.8593 231.306L80.4186 212.747" stroke="#ACACAC" stroke-width="1.2" stroke-linecap="round" stroke-linejoin="round"/>
<path id="Path 310 Copy 4" d="M184.723 220.269L195.761 231.306L214.32 212.747" stroke="#ACACAC" stroke-width="1.2" stroke-linecap="round" stroke-linejoin="round"/>
<path id="Path 311" fill-rule="evenodd" clip-rule="evenodd" d="M156.049 93.313L187.577 46.8062L156.049 93.313Z" stroke="#ACACAC" stroke-width="1.2" stroke-linecap="round" stroke-linejoin="round"/>
<path id="Path 311_2" fill-rule="evenodd" clip-rule="evenodd" d="M112.806 92.7092L81.2546 46.1689L112.806 92.7092Z" stroke="#ACACAC" stroke-width="1.2" stroke-linecap="round" stroke-linejoin="round"/>
<path id="Path 311_3" fill-rule="evenodd" clip-rule="evenodd" d="M157.897 158.126L187.135 201.253L157.897 158.126Z" stroke="#ACACAC" stroke-width="1.2" stroke-linecap="round" stroke-linejoin="round"/>
<path id="Path 311_4" fill-rule="evenodd" clip-rule="evenodd" d="M111.654 157.706L81.3012 202.478L111.654 157.706Z" stroke="#ACACAC" stroke-width="1.2" stroke-linecap="round" stroke-linejoin="round"/>
<path id="Path 312" fill-rule="evenodd" clip-rule="evenodd" d="M177.595 125.051H219.139H177.595Z" stroke="#ACACAC" stroke-width="1.2" stroke-linecap="round" stroke-linejoin="round"/>
<path id="Path 312_2" fill-rule="evenodd" clip-rule="evenodd" d="M49.9835 125.557H90.5452H49.9835Z" stroke="#ACACAC" stroke-width="1.2" stroke-linecap="round" stroke-linejoin="round"/>
<circle id="Oval 43" cx="200.29" cy="25.9114" r="24.9114" stroke="#ACACAC" stroke-width="1.2" stroke-linecap="round" stroke-linejoin="round"/>
<circle id="Oval 43_2" cx="66.3924" cy="25.9114" r="24.9114" stroke="#ACACAC" stroke-width="1.2" stroke-linecap="round" stroke-linejoin="round"/>
<circle id="Oval 43_3" cx="200.29" cy="222.088" r="24.9114" stroke="#ACACAC" stroke-width="1.2" stroke-linecap="round" stroke-linejoin="round"/>
<circle id="Oval 43_4" cx="66.3924" cy="222.088" r="24.9114" stroke="#ACACAC" stroke-width="1.2" stroke-linecap="round" stroke-linejoin="round"/>
<circle id="Oval 43 Copy" cx="25.9114" cy="125.557" r="24.9114" stroke="#ACACAC" stroke-width="1.2" stroke-linecap="round" stroke-linejoin="round"/>
<circle id="Oval 43 Copy 2" cx="243.886" cy="125.557" r="24.9114" stroke="#ACACAC" stroke-width="1.2" stroke-linecap="round" stroke-linejoin="round"/>
<circle id="Oval Copy 208" cx="218.975" cy="125.557" r="8.44178" transform="rotate(-90 218.975 125.557)" fill="#ACACAC" stroke="#ACACAC" stroke-width="1.8"/>
<circle id="Oval Copy 213" cx="81.9634" cy="44.5947" r="8.44178" transform="rotate(-90 81.9634 44.5947)" fill="#ACACAC" stroke="#ACACAC" stroke-width="1.8"/>
<circle id="Oval Copy 215" cx="187.834" cy="200.291" r="8.44178" transform="rotate(-90 187.834 200.291)" fill="#ACACAC" stroke="#ACACAC" stroke-width="1.8"/>
<circle id="Oval Copy 218" cx="81.9634" cy="200.291" r="8.44178" transform="rotate(-90 81.9634 200.291)" fill="#ACACAC" stroke="#ACACAC" stroke-width="1.8"/>
<circle id="Oval Copy 216" cx="50.8228" cy="125.557" r="8.44178" transform="rotate(-90 50.8228 125.557)" fill="#ACACAC" stroke="#ACACAC" stroke-width="1.8"/>
<circle id="Oval Copy 217" cx="187.834" cy="47.709" r="8.44178" transform="rotate(-90 187.834 47.709)" fill="#ACACAC" stroke="#ACACAC" stroke-width="1.8"/>
</g>
</svg>
